# ProBuilder 5.2.3
# https://unity3d.com/unity/features/worldbuilding/probuilder
# 15/2/2025 8:25:03 PM

mtllib ./Cube_(3).mtl
o Cube (3)

g Cube (3)
v 2.937172 -0.1802321 -1.336268E-06
v 7.529006E-07 -0.1802321 -8.888575E-07
v 2.95791 0.2707003 -3.661179E-06
v 0.02067677 0.4379574 -1.9061E-06
v -3.511478E-06 -0.1802321 -9.817414
v 0.02067453 0.4379574 -9.817416
v 2.937168 -0.1802321 -9.817414
v 2.957904 0.2707003 -9.817416

vt 0.1642449 0.7627896
vt 0.01932943 0.7627896
vt 0.1642483 0.7720705
vt 0.01932943 0.7803226
vt 0.4860011 0.7765373
vt 0.01108664 0.7765373
vt 0.4860011 0.7937278
vt 0.01108664 0.7937278
vt 0.1475509 0.7741032
vt 0.002635315 0.7741032
vt 0.1475509 0.7916362
vt 0.002633572 0.7833841
vt 0.4906776 0.7576278
vt 0.01576312 0.7576278
vt 0.4906776 0.7667274
vt 0.01576316 0.7667274
vt 0.3685433 0.8018529
vt 0.3684826 0.7139669
vt 0.07526954 0.8020546
vt 0.07520878 0.7141696
vt 0.07514857 0.6270314
vt 0.0752092 0.7147732
vt 0.3684224 0.6268287
vt 0.368483 0.7145705

vn 1.523269E-07 5.14878E-06 1
vn -0.9994411 0.03342739 4.341261E-07
vn 0 -3.085378E-06 -1
vn 0.9989444 -0.0459356 -4.366735E-07
vn 0.05685167 0.9983826 -3.589712E-08
vn 0 -1 0

usemtl atlas1_lambert1_AlbedoTransparency.1001
f 3/3/1 4/4/1 2/2/1 1/1/1
f 4/7/2 6/8/2 5/6/2 2/5/2
f 6/11/3 8/12/3 7/10/3 5/9/3
f 8/15/4 3/16/4 1/14/4 7/13/4
f 8/19/5 6/20/5 4/18/5 3/17/5
f 1/23/6 2/24/6 5/22/6 7/21/6

