# ProBuilder 5.2.3
# https://unity3d.com/unity/features/worldbuilding/probuilder
# 15/2/2025 8:24:57 PM

mtllib ./floor_(10).mtl
o floor (10)

g floor (10)
v 6.812391 3.591246E-08 2.199694E-06
v -1.66893E-06 0 1.907349E-06
v 6.812391 0.3327749 2.199694E-06
v -1.66893E-06 0.3327749 1.907349E-06
v -1.7856E-06 1.315338E-07 -15.33976
v -1.7856E-06 0.3327749 -15.33976
v 6.812391 1.793445E-07 -15.33976
v 6.812391 0.3327749 -15.33976

vt 6.812391 3.591246E-08
vt -1.66893E-06 0
vt 6.812391 0.3327749
vt -1.66893E-06 0.3327749
vt -15.33976 1.315338E-07
vt -15.33976 0.3327749
vt -6.812387 1.793445E-07
vt -6.812387 0.3327749
vt 1.745395 8.34465E-07
vt 1.745395 1.461684
vt -2.980232E-07 1.461684
vt -6.812391 -15.33976
vt 1.7856E-06 -15.33976
vt 6.812391 -15.33976

vn -4.291374E-08 0 1
vn -1 0 7.605709E-09
vn 2.799822E-07 0 -1
vn 1 0 0
vn 0 1 0
vn 7.01819E-09 -1 -9.350342E-09

usemtl Exterior_Painted_Stucco_Texture,_Red
f 3/3/1 4/4/1 2/2/1 1/1/1
f 4/4/2 6/6/2 5/5/2 2/2/2
f 6/4/3 8/8/3 7/7/3 5/2/3
f 8/10/4 3/11/4 1/2/4 7/9/4
f 8/12/5 6/13/5 4/2/5 3/7/5
f 1/1/6 2/2/6 5/13/6 7/14/6

