# ProBuilder 5.2.3
# https://unity3d.com/unity/features/worldbuilding/probuilder
# 15/2/2025 8:24:57 PM

mtllib ./floor_(12).mtl
o floor (12)

g floor (12)
v 9.748989 -0.0009006911 20.63058
v -7.925913 -0.0009006911 20.8268
v 9.748989 1.385251 20.63754
v -7.925913 1.385251 20.83375
v -10.95432 2.633528E-07 -21.73329
v 5.534442 0.0002295636 -21.73328
v -10.95432 1.486718 -21.72633
v 5.534442 1.486479 -21.72633
v 6.747096 3.767428E-07 9.508249E-07
v -10.95432 2.633528E-07 1.907349E-06
v 6.747096 1.386152 0.006962145
v -10.95432 1.386152 0.006962145
v -10.95433 4.815563E-06 -11.22561
v -10.95433 1.436438 -11.21865
v 6.747091 0.0001220754 -11.22561
v 6.747091 1.436321 -11.21865

vt 3.039075 0.03291525
vt -2.604013 0.03291525
vt 3.03905 0.4754518
vt -2.604038 0.4754518
vt 3.497188 -0.032472
vt -1.766876 -0.03239879
vt 3.497189 0.4421701
vt -1.766876 0.4420937
vt 2.154021 2.384186E-07
vt -3.497185 7.152557E-07
vt 3.11238 6.586346
vt -2.53036 6.648988
vt -0.3123584 0.44099
vt -0.3101594 -0.001541242
vt -6.96806 0.4407022
vt -6.965863 -0.001828924
vt -0.5032301 0.002503008
vt -0.5010312 0.4450341
vt 6.215682 0.002215356
vt 6.217879 0.4447465
vt 3.497185 0.002203465
vt -2.154021 0.002203465
vt 2.53036 6.651189
vt -3.11238 6.588546
vt 4.768372E-07 1.296401E-06
vt -3.583793 2.741814E-06
vt -3.581572 0.4585863
vt 0.002222538 0.4425323
vt -6.938387 1.296401E-06
vt -6.936166 0.4746382
vt 6.825487 -0.0005074739
vt 3.454202 -0.0005938709
vt 3.451985 0.4579148
vt 6.823272 0.4739798
vt -0.1236787 -0.0005774647
vt -0.1258976 0.4419537
vt -2.154016 0.0001726151
vt 3.49719 0.0001728535
vt 3.497191 -3.583658
vt -2.154014 -3.583658
vt 3.49719 -6.93829
vt -1.766874 -6.938288
vt 1.766879 -6.938384
vt -3.497185 -6.938387
vt -3.497186 -3.583793
vt 2.154019 -3.583793

vn 0.0111006 -0.005015159 0.9999258
vn 5.132889E-07 0.004680062 -0.999989
vn 6.403341E-09 -1 -4.367724E-05
vn 0.9895788 0.0007231147 -0.1439907
vn -0.9895926 -0.0007232206 0.1438959
vn -3.367224E-08 1 4.32657E-05
vn -1 -3.458747E-07 3.807537E-07
vn 0.9934064 0.0005362796 -0.114645
vn 1 2.057365E-09 -4.247761E-07
vn -3.36719E-08 0.99999 0.004469055
vn 1.056771E-05 0.9999886 0.004778818

usemtl orange
f 3/3/1 4/4/1 2/2/1 1/1/1
f 7/7/2 8/8/2 6/6/2 5/5/2
f 1/11/3 2/12/3 10/10/3 9/9/3
f 3/15/4 1/16/4 9/14/4 11/13/4
f 2/19/5 4/20/5 12/18/5 10/17/5
f 4/23/6 3/24/6 11/22/6 12/21/6
f 14/27/7 13/26/7 10/25/7 12/28/7
f 7/30/7 5/29/7 13/26/7 14/27/7
f 16/33/8 15/32/8 6/31/8 8/34/8
f 11/36/9 9/35/9 15/32/9 16/33/9
f 11/37/10 16/40/10 14/39/10 12/38/10
f 14/39/11 16/40/11 8/42/11 7/41/11
f 13/45/3 5/44/3 6/43/3 15/46/3
f 10/10/3 13/45/3 15/46/3 9/9/3

