# ProBuilder 5.2.3
# https://unity3d.com/unity/features/worldbuilding/probuilder
# 15/2/2025 8:24:57 PM

mtllib ./floor_(2).mtl
o floor (2)

g floor (2)
v 9.747863 6.619205E-07 20.52735
v -7.92704 2.633528E-07 20.72357
v 9.747863 1.386152 20.53431
v -7.927041 1.386152 20.73052
v -10.95432 2.633528E-07 1.907349E-06
v -10.95432 2.633528E-07 -21.73329
v -10.95432 1.386152 0.006962145
v -10.95432 1.486718 -21.72633
v 6.747096 6.619205E-07 -21.73329
v 6.747096 1.486719 -21.72633
v 6.747096 3.767428E-07 9.508249E-07
v 6.747096 1.386152 0.006962145

vt 3.039081 0.03303771
vt -2.604007 0.0330376
vt 3.039056 0.4755743
vt -2.604031 0.4755741
vt 4.768372E-07 2.473593E-06
vt -6.938387 2.473593E-06
vt 0.002222538 0.4425335
vt -6.936166 0.4746394
vt 3.497185 -0.032472
vt -2.154021 -0.03247188
vt 3.497185 0.4421701
vt -2.154021 0.4421703
vt 6.938387 2.086163E-07
vt 6.936166 0.4746372
vt -0.002222538 0.4425313
vt -2.154021 0.0001749992
vt 3.497185 0.0001749992
vt -2.154021 -6.938288
vt 3.497185 -6.938288
vt 0.1330515 -0.8697081
vt -0.6511575 -0.8697081
vt 0.1330515 -0.144328
vt -0.6511575 -0.144328
vt 0.2659915 0.5408019
vt -0.5170427 0.5473509
vt -0.3137708 0.4409832
vt -0.3115721 -0.001548126
vt -6.936809 0.4409832
vt -6.934612 -0.001548007
vt -0.5055003 0.002514035
vt -0.5033016 0.4450452
vt 6.180748 0.002514035
vt 6.182945 0.4450452
vt 3.497185 0.002222538
vt -2.154021 0.002222538
vt 2.53072 6.618252
vt -3.11202 6.555609

vn 0.0111006 -0.005015158 0.9999258
vn -1 -6.880015E-07 0
vn -1.05377E-10 0.004680063 -0.999989
vn 1 0 0
vn -3.367188E-08 0.9999893 0.004627236
vn 2.251614E-08 -1 -1.312169E-08
vn 0.9894832 0.0007264084 -0.1446465
vn -0.989498 -0.0007264804 0.1445451
vn -3.367224E-08 1 4.918816E-09

usemtl white
f 3/3/1 4/4/1 2/2/1 1/1/1
f 7/7/2 8/8/2 6/6/2 5/5/2
f 8/11/3 10/12/3 9/10/3 6/9/3
f 10/14/4 12/15/4 11/5/4 9/13/4
f 10/18/5 8/19/5 7/17/5 12/16/5
f 11/22/6 5/23/6 6/21/6 9/20/6
f 1/24/6 2/25/6 5/23/6 11/22/6
f 3/28/7 1/29/7 11/27/7 12/26/7
f 2/32/8 4/33/8 7/31/8 5/30/8
f 4/36/9 3/37/9 12/35/9 7/34/9

