# ProBuilder 5.2.3
# https://unity3d.com/unity/features/worldbuilding/probuilder
# 15/2/2025 8:24:54 PM

mtllib ./floor_(15).mtl
o floor (15)

g floor (15)
v 9.435135 2.627745E-07 20.71038
v -7.92704 2.633528E-07 20.72357
v 9.435135 0.332775 20.71038
v -7.92704 0.332775 20.72357
v -10.95432 -0.1395576 -21.505
v 6.402321 -0.1395576 -21.505
v -10.95432 0.001103409 -21.50366
v 6.402321 0.001103409 -21.50366
v 6.40232 1.192093E-07 1.907349E-06
v -10.95432 2.633528E-07 1.907349E-06
v 6.40232 0.332775 1.907349E-06
v -10.95432 0.332775 1.907349E-06
v -10.95432 5.479521E-07 -17.10254
v -10.95432 0.3327753 -17.10254
v 6.402321 4.053633E-07 -17.10254
v 6.402321 0.3327753 -17.10254

vt 3.007156 8.568168E-08
vt -2.535747 8.568168E-08
vt 3.007156 0.1062389
vt -2.535747 0.1062389
vt 3.497185 -0.1097159
vt -2.043951 -0.1097159
vt 3.497185 -0.06480761
vt -2.043951 -0.06480761
vt 2.043951 7.152557E-07
vt -3.497184 7.152557E-07
vt 3.012181 6.611819
vt -2.53072 6.616032
vt -0.2961569 0.1062389
vt -0.2961569 3.72529E-08
vt -6.978494 0.1062389
vt -6.978494 8.195639E-08
vt -0.5055003 8.568168E-08
vt -0.5055003 0.1062389
vt 6.180748 8.568168E-08
vt 6.180748 0.1062389
vt 3.497184 7.152557E-07
vt -2.043951 7.152557E-07
vt 2.53072 6.616032
vt -3.012181 6.611819
vt 4.768372E-07 8.195639E-08
vt -5.460013 1.750886E-07
vt -5.460013 0.106239
vt 4.768372E-07 0.1062389
vt -6.865503 -0.04455399
vt -6.865077 0.0003522635
vt 6.865503 -0.04455399
vt 5.460013 1.266599E-07
vt 5.460013 0.106239
vt 6.865077 0.0003522635
vt -2.04395 0.00399518
vt 3.497185 0.00399518
vt 3.497185 -5.452158
vt -2.043951 -5.452158
vt 3.497185 -6.860209
vt -2.043951 -6.860209
vt 2.043951 -6.865347
vt -3.497185 -6.865347
vt -3.497185 -5.459328
vt 2.043951 -5.459328

vn 0.0007598775 0 0.9999998
vn 0 0.0094915 -0.999955
vn -8.304805E-09 -1 8.148194E-09
vn 0.9894472 0 -0.1448941
vn -0.9894982 0 0.1445451
vn 1.717056E-09 1 -2.508261E-10
vn -1 0 0
vn 1 0 0
vn 0 0.9971724 -0.07514779
vn 0 -0.999498 0.03168416

usemtl darkGray
f 3/3/1 4/4/1 2/2/1 1/1/1
f 7/7/2 8/8/2 6/6/2 5/5/2
f 1/11/3 2/12/3 10/10/3 9/9/3
f 3/15/4 1/16/4 9/14/4 11/13/4
f 2/19/5 4/20/5 12/18/5 10/17/5
f 4/23/6 3/24/6 11/22/6 12/21/6
f 12/28/7 14/27/7 13/26/7 10/25/7
f 14/27/7 7/30/7 5/29/7 13/26/7
f 16/33/8 15/32/8 6/31/8 8/34/8
f 9/25/8 15/32/8 16/33/8 11/28/8
f 11/35/6 16/38/6 14/37/6 12/36/6
f 16/38/9 8/40/9 7/39/9 14/37/9
f 13/43/10 5/42/10 6/41/10 15/44/10
f 10/10/3 13/43/3 15/44/3 9/9/3

