# ProBuilder 5.2.3
# https://unity3d.com/unity/features/worldbuilding/probuilder
# 15/2/2025 8:25:02 PM

mtllib ./hdbWall_(1).mtl
o hdbWall (1)

g hdbWall (1)
v 5.854163 -1.023037E-06 0.2959378
v -1.907349E-06 -2.384186E-07 0.295939
v 5.854163 28.49422 0.2959378
v 2.895631E-07 28.49422 0.2959378
v -3.703948E-06 4.257696E-07 -0.7313911
v -3.703948E-06 28.49422 -0.731391
v 5.854159 -1.230663E-06 -0.7313911
v 5.854159 28.49422 -0.731391

vt 1.095396 -0.4396554
vt 0.5679102 -0.4396553
vt 1.095396 2.455799
vt 0.5679104 2.455799
vt 0.5945758 -0.4396553
vt 0.5020089 -0.4396553
vt 0.5945756 2.455799
vt 0.5020089 2.455799
vt 0.9540334 -0.4366477
vt 0.4265477 -0.4366477
vt 0.9540334 2.458806
vt 0.4265477 2.458806
vt 0.6338097 -0.4396554
vt 0.5412429 -0.4396554
vt 0.6338097 2.455799
vt 0.5412429 2.455799
vt 0.4230203 -0.4065653
vt 0.950506 -0.4065653
vt 0.4230207 -0.5109578
vt 0.9505064 -0.5109578
vt 1.095396 -0.513976
vt 0.56791 -0.513976
vt 1.095396 -0.4095834
vt 0.5679102 -0.4095833

vn 2.036316E-07 -1.045908E-09 1
vn -1 7.710033E-08 1.748805E-06
vn 5.918781E-16 2.091816E-09 -1
vn 1 8.738291E-15 -4.177371E-06
vn 0 1 -3.713219E-06
vn -2.829495E-07 -1 2.021035E-07

usemtl Exterior_Painted_Stucco_Texture,_Red
f 3/3/1 4/4/1 2/2/1 1/1/1
f 4/7/2 6/8/2 5/6/2 2/5/2
f 6/11/3 8/12/3 7/10/3 5/9/3
f 8/15/4 3/16/4 1/14/4 7/13/4
f 8/19/5 6/20/5 4/18/5 3/17/5
f 1/23/6 2/24/6 5/22/6 7/21/6

