# ProBuilder 5.2.3
# https://unity3d.com/unity/features/worldbuilding/probuilder
# 15/2/2025 8:25:02 PM

mtllib ./hdbWall_(9).mtl
o hdbWall (9)

g hdbWall (9)
v 17.03259 -8.180243E-07 0.4295243
v -7.063268 -1.646048E-06 0.2959761
v 17.03259 1.373491 0.4296452
v -7.063268 1.37349 0.2960937
v -7.063268 -3.601613E-05 -0.3191434
v -7.063268 1.373451 -0.3190257
v 17.03259 -3.684454E-05 -0.1855952
v 17.03259 1.373452 -0.1854775

vt 2.102813 -0.4396524
vt -0.06836349 -0.4396525
vt 2.102813 -0.3000844
vt -0.06836349 -0.3000845
vt 0.5945791 -0.4396555
vt 0.5391542 -0.439659
vt 0.5945897 -0.3000875
vt 0.5391648 -0.3000914
vt 1.590614 -0.4366538
vt -0.5805619 -0.4366538
vt 1.590614 -0.2970861
vt -0.5805619 -0.2970861
vt 0.5846333 -0.4396591
vt 0.5292084 -0.4396554
vt 0.5846227 -0.3000913
vt 0.5291975 -0.3000874
vt -0.5842051 -0.3929805
vt 1.586937 -0.4065515
vt -0.5842051 -0.4554865
vt 1.586937 -0.4690571
vt 2.102622 -0.4585147
vt -0.06852096 -0.4720852
vt 2.102622 -0.396009
vt -0.06852096 -0.4095795

vn -0.005542286 -8.802833E-05 0.9999847
vn -1 0 0
vn 0.005542286 8.564182E-05 -0.9999847
vn 1 0 0
vn 2.974693E-07 1 -6.259662E-05
vn -3.58987E-07 -1 5.856832E-05

usemtl Exterior_Painted_Stucco_Texture,_Red
f 3/3/1 4/4/1 2/2/1 1/1/1
f 4/7/2 6/8/2 5/6/2 2/5/2
f 6/11/3 8/12/3 7/10/3 5/9/3
f 8/15/4 3/16/4 1/14/4 7/13/4
f 8/19/5 6/20/5 4/18/5 3/17/5
f 1/23/6 2/24/6 5/22/6 7/21/6

