# ProBuilder 5.2.3
# https://unity3d.com/unity/features/worldbuilding/probuilder
# 15/2/2025 8:25:02 PM

mtllib ./hdbWall_(6).mtl
o hdbWall (6)

g hdbWall (6)
v 5.436604 -8.929641E-07 0.2959482
v -23.1646 -4.78856E-07 0.2959544
v 5.452203 1.090292 0.2959408
v -23.16459 1.090292 0.2959559
v -67.86539 -0.7717463 -5.413013
v -67.7739 -0.7717455 -6.018691
v -67.7987 1.090292 -5.413043
v -67.79871 1.090289 -6.018717
v -23.16459 3.493601E-07 -0.3097173
v 5.539588 -1.307072E-06 -0.3097226
v -23.16459 1.090289 -0.3097173
v 5.452198 1.090289 -0.3097256
v -30.42431 -0.7717463 0.139745
v -30.4243 -0.7717455 -0.4659263
v -30.4243 1.090292 0.1397404
v -30.4243 1.090289 -0.4659328

vt 1.057772 -0.4396556
vt -1.519321 -0.4396555
vt 1.059178 -0.3288649
vt -1.51932 -0.3288649
vt 0.9989147 -0.7622428
vt 0.9437214 -0.7622427
vt 0.9980145 -0.5729122
vt 0.9440528 -0.5732379
vt 3.041265 -0.4366476
vt 0.4548919 -0.4366478
vt 3.041265 -0.3258574
vt 0.4627661 -0.3258574
vt 0.6790931 -0.482955
vt 0.6237363 -0.4829549
vt 0.6777734 -0.3718193
vt 0.6239725 -0.3726317
vt 0.4592387 -0.4065751
vt 3.037737 -0.4065736
vt 0.4592391 -0.4681202
vt 3.037737 -0.4681194
vt 1.067052 -0.4711279
vt -1.519321 -0.4711274
vt 1.057772 -0.4095824
vt -1.519321 -0.4095818
vt -1.507627 -0.4095818
vt -1.507627 -0.4711275
vt -2.165445 -0.4254552
vt -2.165444 -0.4870007
vt -1.518264 -0.3288646
vt -1.518265 -0.4396553
vt -2.172547 -0.3288646
vt -2.172548 -0.5180766
vt 2.655259 -0.4396553
vt 2.655259 -0.3288651
vt 3.309542 -0.5180766
vt 3.309542 -0.3288651
vt 2.655142 -0.4711268
vt 2.655141 -0.409581
vt 3.309273 -0.4870007
vt 3.309273 -0.4254549
vt -2.173453 -0.4254549
vt -2.173453 -0.4870005
vt -5.547058 -0.9897012
vt -5.538815 -1.051247
vt -2.141838 -0.3288665
vt -2.141839 -0.5180784
vt -5.5464 -0.3288665
vt -5.552343 -0.5180784
vt 3.285644 -0.5180781
vt 3.285644 -0.3288666
vt 6.687995 -0.5180781
vt 6.690206 -0.3288666
vt 6.67687 -1.05125
vt 6.67687 -0.9897038

vn 2.167351E-07 6.857792E-06 1
vn -0.9881651 0.03538849 -0.1492564
vn -0.9940382 0.0110346 -0.07462187
vn -0.9999113 -0.01331928 1.266883E-05
vn -1.848098E-07 0 -1
vn 0.9827867 0.07877413 0.1671076
vn 0.9913422 0.0322341 0.08354988
vn 0.9998977 -0.01430593 -7.793287E-06
vn -2.915597E-12 1 -5.511054E-06
vn -5.770687E-08 -1 6.739058E-07
vn 0.1057097 -0.994397 -3.610867E-07
vn -0.02151318 -1.113258E-06 0.9997686
vn 0.02151227 0 -0.9997686
vn -0.1469588 3.792854E-06 0.9891427
vn -0.1468294 0.002637017 0.9891548
vn -0.1467 0.005270242 0.989167
vn 0.1470537 -3.784139E-06 -0.9891285
vn 0.1470061 0.0009699196 -0.9891347
vn 0.1469585 0.001943623 -0.9891408

usemtl Exterior_Painted_Stucco_Texture,_Red
f 3/3/1 4/4/1 2/2/1 1/1/1
f 7/7/3 8/8/4 6/6/3 5/5/2
f 11/11/5 12/12/5 10/10/5 9/9/5
f 12/15/7 3/16/8 1/14/7 10/13/6
f 12/19/9 11/20/9 4/18/9 3/17/9
f 1/23/10 2/24/10 9/22/10 10/21/10
f 13/27/11 14/28/11 9/26/11 2/25/11
f 15/31/12 13/32/12 2/30/12 4/29/12
f 14/35/13 16/36/13 11/34/13 9/33/13
f 16/39/9 15/40/9 4/38/9 11/37/9
f 5/43/10 6/44/10 14/42/10 13/41/10
f 7/47/15 5/48/16 13/46/15 15/45/14
f 6/51/18 8/52/19 16/50/18 14/49/17
f 8/53/9 7/54/9 15/40/9 16/39/9

