# ProBuilder 5.2.3
# https://unity3d.com/unity/features/worldbuilding/probuilder
# 15/2/2025 8:25:02 PM

mtllib ./hdbWall_(26).mtl
o hdbWall (26)

g hdbWall (26)
v 5.854157 -1.106232 0.2959409
v -5.837179E-06 -1.106231 0.2959409
v 5.854163 28.49422 0.2959378
v 2.895631E-07 28.49422 0.2959378
v -1.246291E-05 -1.10623 -0.7313917
v -3.703948E-06 28.49422 -0.731391
v 5.85415 -1.106232 -0.7313917
v 5.854159 28.49422 -0.731391

vt 1.095396 -0.5520655
vt 0.5679098 -0.5520655
vt 1.095396 2.455799
vt 0.5679104 2.455799
vt 0.5945759 -0.5520655
vt 0.5020088 -0.5520655
vt 0.5945756 2.455799
vt 0.5020089 2.455799
vt 0.9540342 -0.5490577
vt 0.4265485 -0.549058
vt 0.9540334 2.458806
vt 0.4265477 2.458806
vt 0.6338086 -0.5520655
vt 0.5412414 -0.5520654
vt 0.6338085 2.455799
vt 0.5412416 2.455799
vt 0.4230203 -0.4065653
vt 0.950506 -0.4065653
vt 0.4230207 -0.5109578
vt 0.9505064 -0.5109578
vt 1.095395 -0.5139761
vt 0.5679092 -0.5139761
vt 1.095396 -0.4095832
vt 0.5679098 -0.4095832

vn 6.335131E-15 1.037024E-07 1
vn -1 2.069821E-07 6.449449E-06
vn 6.31463E-15 2.215004E-08 -1
vn 1 -2.89964E-07 -6.49811E-06
vn 0 1 -3.713219E-06
vn -2.850843E-07 -1 4.641526E-07

usemtl Exterior_Painted_Stucco_Texture,_Red
f 3/3/1 4/4/1 2/2/1 1/1/1
f 4/7/2 6/8/2 5/6/2 2/5/2
f 6/11/3 8/12/3 7/10/3 5/9/3
f 8/15/4 3/16/4 1/14/4 7/13/4
f 8/19/5 6/20/5 4/18/5 3/17/5
f 1/23/6 2/24/6 5/22/6 7/21/6

