# ProBuilder 5.2.3
# https://unity3d.com/unity/features/worldbuilding/probuilder
# 15/2/2025 8:25:02 PM

mtllib ./hdbWall_(10).mtl
o hdbWall (10)

g hdbWall (10)
v 17.03259 -8.180243E-07 0.4295243
v 6.010957 -4.254041E-07 -0.7690112
v 17.03259 1.373491 0.4296452
v 6.010955 1.373491 -0.7688955
v -12.67211 -3.60387E-05 -2.802063
v -12.67211 -7.040967E-05 -3.41718
v -12.67211 1.373455 -2.801947
v -12.70277 1.373435 -3.144667
v 6.010956 -3.479637E-05 -1.384128
v 17.03259 -3.684454E-05 -0.1855952
v 5.980298 1.37347 -1.111616
v 17.03259 1.373452 -0.1854775
v 1.403135 -8.707565E-06 -1.212044
v 1.403133 -4.307853E-05 -1.827161
v 1.403132 1.373483 -1.211929
v 1.372474 1.373462 -1.554649
v 5.980334 9.594957 -1.11212
v 6.010991 9.594976 -0.7693994
v 1.372512 9.594949 -1.555153
v 1.40317 9.594971 -1.212432
v -7.102649 -2.444367E-05 -2.175322
v -7.102651 -5.881464E-05 -2.790438
v -7.102652 1.373467 -2.175206
v -7.133311 1.373446 -2.517926
v -7.133273 9.594933 -2.51843
v -7.102614 9.594954 -2.175709
v -12.70274 9.594917 -3.145172
v -12.67208 9.594944 -2.802452

vt 2.097811 -0.439668
vt 1.098859 -0.4396679
vt 2.097812 -0.3000999
vt 1.09886 -0.3000999
vt 0.3154287 -0.4396563
vt 0.260004 -0.4396598
vt 0.3154391 -0.3000883
vt 0.2845586 -0.3000903
vt 0.4290765 -0.4769562
vt -0.5698758 -0.4769565
vt 0.4291683 -0.3346322
vt -0.569877 -0.3400877
vt 0.5846333 -0.4396591
vt 0.5292084 -0.4396554
vt 0.5846227 -0.3000913
vt 0.5291975 -0.3000874
vt -0.5842044 -0.3929805
vt 0.4088935 -0.5147709
vt -0.5842044 -0.4554865
vt 0.4116558 -0.5495965
vt 2.102622 -0.4585146
vt 1.109524 -0.5803041
vt 2.102622 -0.396009
vt 1.109524 -0.5177988
vt 0.694339 -0.5628178
vt 0.6943388 -0.6253232
vt 1.100407 -0.3000988
vt 1.100406 -0.4396668
vt 0.6833072 -0.3000996
vt 0.6833065 -0.4396676
vt 0.04071927 -0.4785113
vt 0.04111904 -0.336188
vt 0.4578189 -0.4785122
vt 0.4582188 -0.3361888
vt 0.02905917 -0.5526093
vt 0.02629679 -0.5177836
vt 0.4442441 -0.5976284
vt 0.4414816 -0.5628026
vt -0.07206935 -0.6607017
vt -0.07206953 -0.7232071
vt 0.6812474 -0.3000998
vt 0.6812465 -0.4396678
vt -0.09006011 -0.3001014
vt -0.09006107 -0.4396694
vt 0.4608113 -0.4789227
vt 0.4607932 -0.3365986
vt 1.232119 -0.4789243
vt 1.232101 -0.3366002
vt 1.210654 -0.6955073
vt 1.207891 -0.6606816
vt -0.5739022 -0.7243883
vt -0.5739024 -0.7868937
vt -0.08997303 -0.3001015
vt -0.08997393 -0.4396694
vt -0.5949734 -0.3001026
vt -0.5949742 -0.4396706
vt 1.231993 -0.4790283
vt 1.231992 -0.3367042
vt 1.736993 -0.4790294
vt 1.736992 -0.3367054
vt 1.712486 -0.7591935
vt 1.709724 -0.7243677
vt 0.8511533 -0.300099
vt 0.8201494 -0.3000969
vt 0.8511982 0.5353314
vt 0.8201942 0.5353336
vt 1.736992 -0.3000824
vt 1.231992 -0.3000813
vt 1.736995 0.5353476
vt 1.231994 0.5353492
vt -0.08997458 0.5353491
vt -0.5949752 0.5353482
vt 0.2147191 -0.3001033
vt 0.1837152 -0.3001053
vt 0.2146741 0.5353274
vt 0.1836701 0.5353248
vt 0.6196634 -0.3000834
vt 0.5886595 -0.3000813
vt 0.6197084 0.5353471
vt 0.5887045 0.5353491
vt 0.4582188 -0.3000798
vt 0.0411191 -0.300079
vt 0.4582198 0.5353507
vt 0.04112017 0.5353515
vt 1.100406 0.5353513
vt 0.6833063 0.5353507
vt 0.4704096 -0.3000866
vt 0.4394056 -0.3000887
vt 0.4703647 0.535344
vt 0.4393607 0.5353417

vn -0.1081066 -8.751376E-05 0.9941393
vn -1 -2.083291E-06 3.100908E-06
vn -0.9976155 -0.0199394 0.04451381
vn -0.9952309 -0.03987673 0.08902453
vn 0.106014 0.1957923 -0.9748982
vn 0.09475866 0.09793884 -0.9857029
vn 0.08350334 8.533311E-05 -0.9965075
vn 1 0 0
vn 6.807027E-06 1 -6.259661E-05
vn -6.554762E-06 -1 5.856832E-05
vn -0.09570671 -8.401198E-05 0.9954096
vn 0.09385443 0.195769 -0.9761485
vn -0.1125303 -8.395549E-05 0.9936483
vn 0.110352 0.1957934 -0.9744165
vn -0.111826 -8.3894E-05 0.9937278
vn 0.1096612 0.1957935 -0.9744944
vn 0.9960226 -1.007862E-05 -0.08910112
vn 0.1118259 -6.146368E-05 -0.9937278
vn -0.9960233 9.739267E-06 0.08909304
vn 0.09570675 -6.140837E-05 -0.9954095

usemtl Exterior_Painted_Stucco_Texture,_Red
f 3/3/1 4/4/1 2/2/1 1/1/1
f 7/7/3 8/8/4 6/6/3 5/5/2
f 11/11/6 12/12/7 10/10/6 9/9/5
f 12/15/8 3/16/8 1/14/8 10/13/8
f 12/19/9 11/20/9 4/18/9 3/17/9
f 1/23/10 2/24/10 9/22/10 10/21/10
f 13/25/10 14/26/10 9/22/10 2/24/10
f 15/29/11 13/30/11 2/28/11 4/27/11
f 14/33/12 16/34/12 11/32/12 9/31/12
f 19/37/9 20/38/9 18/36/9 17/35/9
f 21/39/10 22/40/10 14/26/10 13/25/10
f 23/43/13 21/44/13 13/42/13 15/41/13
f 22/47/14 24/48/14 16/46/14 14/45/14
f 24/49/9 23/50/9 15/38/9 16/37/9
f 5/51/10 6/52/10 22/40/10 21/39/10
f 7/55/15 5/56/15 21/54/15 23/53/15
f 6/59/16 8/60/16 24/58/16 22/57/16
f 27/61/9 28/62/9 26/50/9 25/49/9
f 25/65/17 26/66/17 23/64/17 24/63/17
f 27/69/18 25/70/18 24/68/18 8/67/18
f 26/71/15 28/72/15 7/55/15 23/53/15
f 28/75/19 27/76/19 8/74/19 7/73/19
f 17/79/17 18/80/17 4/78/17 11/77/17
f 19/83/20 17/84/20 11/82/20 16/81/20
f 18/85/11 20/86/11 15/29/11 4/27/11
f 20/89/19 19/90/19 16/88/19 15/87/19

