# ProBuilder 5.2.3
# https://unity3d.com/unity/features/worldbuilding/probuilder
# 15/2/2025 8:25:02 PM

mtllib ./hdbWall_(16).mtl
o hdbWall (16)

g hdbWall (16)
v 5.963925 3.000421E-06 0.02738893
v 5.090935 9.62615E-06 0.02737979
v 5.963948 21.33601 0.02741724
v 5.09095 21.33602 0.02740476
v 5.090909 4.656853E-06 -0.7314059
v 5.090931 21.33601 -0.7313772
v 5.963907 -1.968876E-06 -0.7313931
v 5.96393 21.336 -0.7313648

vt 1.105286 -0.4396551
vt 1.026626 -0.4396544
vt 1.105288 1.728414
vt 1.026627 1.728415
vt 0.5703933 -0.4396539
vt 0.5020233 -0.4396545
vt 0.5703955 1.728415
vt 0.502026 1.728415
vt 0.4953209 -0.4366473
vt 0.41666 -0.436648
vt 0.4953189 1.731422
vt 0.4166579 1.73142
vt 0.6337996 -0.4396548
vt 0.56543 -0.4396544
vt 0.633797 1.728414
vt 0.5654275 1.728415
vt 0.4131408 -0.4338292
vt 0.4918018 -0.4338304
vt 0.4131424 -0.5109332
vt 0.4918034 -0.5109345
vt 1.105284 -0.5139762
vt 1.026624 -0.5139775
vt 1.105286 -0.4368722
vt 1.026626 -0.4368731

vn -1.046978E-05 -1.326782E-06 1
vn -1 6.704278E-07 3.456317E-05
vn 1.467931E-05 1.343715E-06 -1
vn 1 -1.072719E-06 -2.32517E-05
vn 6.554691E-06 1 -1.508234E-05
vn -7.589721E-06 -1 6.54922E-06

usemtl white
f 3/3/1 4/4/1 2/2/1 1/1/1
f 4/7/2 6/8/2 5/6/2 2/5/2
f 6/11/3 8/12/3 7/10/3 5/9/3
f 8/15/4 3/16/4 1/14/4 7/13/4
f 8/19/5 6/20/5 4/18/5 3/17/5
f 1/23/6 2/24/6 5/22/6 7/21/6

