# ProBuilder 5.2.3
# https://unity3d.com/unity/features/worldbuilding/probuilder
# 15/2/2025 8:25:02 PM

mtllib ./hdbWall_(25).mtl
o hdbWall (25)

g hdbWall (25)
v 6.011453 -0.8442354 0.2959491
v 3.163176E-06 -0.844235 0.2959491
v 5.854163 28.49422 0.2959378
v 2.895631E-07 28.49422 0.2959378
v -3.452671E-06 -0.8442342 -0.7313834
v -3.703948E-06 28.49422 -0.731391
v 5.854161 -0.8442358 -0.7313834
v 5.854159 28.49422 -0.731391

vt 1.109569 -0.5254428
vt 0.5679107 -0.5254428
vt 1.095396 2.455799
vt 0.5679104 2.455799
vt 0.5945767 -0.5254427
vt 0.5020095 -0.5254426
vt 0.5945756 2.455799
vt 0.5020089 2.455799
vt 0.9540334 -0.5224349
vt 0.4265476 -0.5224349
vt 0.9540334 2.458806
vt 0.4265477 2.458806
vt 0.5532206 -0.5254428
vt 0.4595748 -0.5254428
vt 0.5532213 2.455799
vt 0.4617207 2.455799
vt 0.4230203 -0.4065653
vt 0.950506 -0.4065653
vt 0.4230207 -0.5109578
vt 0.9505064 -0.5109578
vt 1.095396 -0.5139753
vt 0.5679101 -0.5139753
vt 1.109569 -0.4095823
vt 0.5679107 -0.4095823

vn 2.67914E-14 3.860081E-07 1
vn -1 -9.794449E-08 6.43983E-06
vn -7.413549E-14 -2.600476E-07 -1
vn 0.9884812 2.490654E-08 -0.1513435
vn 0.9942334 0.002680577 -0.07567384
vn 0.9999856 0.005361129 -4.197218E-06
vn 0 1 -3.713219E-06
vn -2.850843E-07 -1 4.497803E-07

usemtl Exterior_Painted_Stucco_Texture,_Red
f 3/3/1 4/4/1 2/2/1 1/1/1
f 4/7/2 6/8/2 5/6/2 2/5/2
f 6/11/3 8/12/3 7/10/3 5/9/3
f 8/15/5 3/16/6 1/14/5 7/13/4
f 8/19/7 6/20/7 4/18/7 3/17/7
f 1/23/8 2/24/8 5/22/8 7/21/8

